Coordinates
version=1
nRows=14
nColumns=24
inDegrees=yes

Units are S.I. units (second, meters, Newtons, ...)
Angles are in degrees.

endheader
time	pelvis_tilt	pelvis_list	pelvis_rotation	pelvis_tx	pelvis_ty	pelvis_tz	hip_flexion_r	hip_adduction_r	hip_rotation_r	knee_angle_r	ankle_angle_r	subtalar_angle_r	mtp_angle_r	hip_flexion_l	hip_adduction_l	hip_rotation_l	knee_angle_l	ankle_angle_l	subtalar_angle_l	mtp_angle_l	lumbar_extension	lumbar_bending	lumbar_rotation
      0.97466667	     -0.88539215	      0.33804875	      3.58600070	     -0.07985932	      1.00633719	      0.28733549	    -16.27094842	      2.39716399	     -3.71703619	     -7.24718474	      9.25177569	     -1.84485525	      0.20392860	     18.73040385	      3.33434897	      8.03459618	      0.35429185	      3.19142989	     -5.59701696	     -4.01154705	    -11.87450323	      5.35698286	      4.30213209
      0.97883333	     -0.87920427	      0.38672837	      3.56670853	     -0.07411614	      1.00576338	      0.28696016	    -16.34527084	      2.30889396	     -3.72563703	     -7.79873389	      9.16212054	     -1.88067647	      0.26377917	     18.67128648	      3.46364227	      8.18339163	      0.24650461	      3.08815067	     -5.54460863	     -4.00148808	    -11.86219808	      5.29336220	      4.27890353
      0.98300000	     -0.93299520	      0.45317411	      3.54738373	     -0.06835955	      1.00510998	      0.28654058	    -16.30181687	      2.18148054	     -3.81762767	     -8.46179188	      9.10047368	     -1.72088094	      5.03972163	     18.64925009	      3.62238102	      8.51302245	      0.12198336	      2.80608246	     -5.87157574	     -3.18245589	    -11.77770237	      5.18972399	      4.22440408
      0.98716667	     -0.90868503	      0.55086555	      3.52408484	     -0.06256403	      1.00459132	      0.28613680	    -16.33104106	      2.02488552	     -3.92076575	     -9.15928993	      9.08666437	     -1.51131913	      5.11149148	     18.57598760	      3.80663106	      8.62985501	     -0.14393056	      2.64702057	     -5.82930664	     -3.18359971	    -11.78499116	      5.06585038	      4.13579532
      0.99133333	     -0.88228368	      0.63390555	      3.50863667	     -0.05677448	      1.00411346	      0.28574297	    -16.36729700	      1.89721710	     -3.92766434	     -9.82721366	      8.92108423	     -1.56200247	      5.13596636	     18.51855405	      3.98070251	      8.76255624	     -0.50470404	      2.47939530	     -5.85642099	     -3.18349428	    -11.80209624	      4.96631549	      4.09904766
      0.99550000	     -0.94850946	      0.73872197	      3.49054842	     -0.05096618	      1.00351395	      0.28529202	    -16.22620103	      1.71636260	     -4.06032326	    -10.67521476	      8.93965082	     -1.25654869	      5.32021749	     18.53183526	      4.18813761	      9.04563483	     -0.85970922	      2.13242900	     -6.19764590	     -3.16950627	    -11.69198289	      4.82929889	      3.99180892
      0.99966667	     -0.89603133	      0.83715030	      3.48069338	     -0.04514455	      1.00312350	      0.28488578	    -16.25212723	      1.57314984	     -4.07806471	    -11.41145782	      8.70550650	     -1.33490769	      5.36732848	     18.46218227	      4.38167136	      9.15697083	     -1.35495967	      1.91609340	     -6.28938809	     -3.16702596	    -11.73765695	      4.70657729	      3.94423000
      1.00383333	     -0.90412339	      0.96199548	      3.49553760	     -0.03932264	      1.00263171	      0.28437016	    -16.14755154	      1.37898968	     -4.24697715	    -12.30326244	      8.63826037	     -1.03242802	      5.84592998	     18.41201094	      4.62411385	      9.53937451	     -1.79316457	      1.43968082	     -6.91647396	     -3.11934721	    -11.70489614	      4.55767984	      3.80312805
      1.00800000	     -0.89535519	      1.06828144	      3.47059394	     -0.03346845	      1.00222344	      0.28398554	    -16.06278666	      1.21844928	     -4.23946172	    -13.15168822	      8.29350048	     -1.24325683	     11.59227484	     18.35076822	      4.82390827	      9.77782272	     -2.27567575	      1.02339322	     -7.34858109	     -2.48930101	    -11.68179570	      4.40329110	      3.75601118
      1.01216667	     -0.90490908	      1.19637204	      3.46332711	     -0.02761417	      1.00180548	      0.28350966	    -15.90878239	      1.01470700	     -4.36950880	    -14.11622780	      8.04884194	     -1.07448973	     11.67951780	     18.35419935	      5.05952201	      9.88935348	     -2.88007547	      0.68185803	     -7.58802794	     -2.49764040	    -11.64061761	      4.25430268	      3.60885351
      1.01633333	     -0.89700700	      1.31673469	      3.45274370	     -0.02175785	      1.00143386	      0.28305922	    -15.75343367	      0.82695738	     -4.45030991	    -15.10681639	      7.74537667	     -1.05235796	     11.83437412	     18.32611952	      5.28369811	     10.05651947	     -3.47890952	      0.28940823	     -7.98958017	     -2.50413063	    -11.61446513	      4.09946273	      3.50213539
      1.02050000	     -0.89600232	      1.43306142	      3.44604422	     -0.01590797	      1.00107413	      0.28259529	    -15.56339241	      0.64151869	     -4.53172344	    -16.13995507	      7.38494242	     -1.05172839	     12.05915594	     18.31370070	      5.50610105	     10.22534055	     -4.11016221	     -0.10456109	     -8.42083211	     -2.50791308	    -11.58643786	      3.95178224	      3.38915971
      1.02466667	     -0.87597242	      1.56659077	      3.43609133	     -0.01005554	      1.00076622	      0.28211860	    -15.36697202	      0.43228205	     -4.62953813	    -17.21930156	      6.98506298	     -1.02953081	     12.41504944	     18.27803235	      5.74560831	     10.39385716	     -4.75083113	     -0.51979432	     -8.91171844	     -2.51172776	    -11.58576840	      3.80006598	      3.26761958
      1.02883333	     -0.84461391	      1.69270528	      3.43100051	     -0.00421926	      1.00050617	      0.28162802	    -15.15867458	      0.23154373	     -4.72746004	    -18.32655689	      6.52430015	     -1.01378757	     13.10119643	     18.24436699	      5.98212671	     10.56396183	     -5.43328022	     -0.93468525	     -9.48182866	     -2.51646379	    -11.60789752	      3.65654661	      3.14378905
